<svg id="Scala" xmlns="http://www.w3.org/2000/svg" viewBox="0 0 256 256"><defs><style>.cls-1{fill:#d42327;}.cls-2{fill:#fff;}</style></defs><title>scala</title><rect class="cls-1" width="256" height="256"/><g id="Scala-2" data-name="Scala"><path class="cls-2" d="M91.1,83s75-7.5,75-20V93s0,12.5-75,20V83Z"/><path class="cls-2" d="M91.1,123s75-7.5,75-20v30s0,12.5-75,20V123Z"/><path class="cls-2" d="M91.1,163s75-7.5,75-20v30s0,12.5-75,20"/><rect class="cls-1" x="90.51" y="113" width="0.75" height="9.99" transform="translate(-11.66 9.98) rotate(-5.91)"/><rect class="cls-1" x="91.02" y="113" width="0.75" height="9.31" transform="translate(-11.62 10.03) rotate(-5.91)"/><rect class="cls-1" x="90.44" y="153" width="0.75" height="9.99" transform="translate(-15.78 10.19) rotate(-5.91)"/><rect class="cls-1" x="90.95" y="153" width="0.75" height="9.31" transform="translate(-15.74 10.24) rotate(-5.91)"/></g></svg>